<svg xmlns="http://www.w3.org/2000/svg" width="500" height="150" viewBox="0 0 500 150" font-family="ui-monospace,'SF Mono','JetBrains Mono',Menlo,Consolas,monospace">
  <title>ccstatus</title>
  <rect x="1" y="1" width="498" height="148" rx="22" fill="#0a0b0e" stroke="#20242c" stroke-width="2"/>
  <g><circle cx="44.0" cy="52.0" r="3.2" fill="#d7875f"/><circle cx="44.0" cy="67.0" r="3.2" fill="#d7875f"/><circle cx="44.0" cy="82.0" r="3.2" fill="#d7875f"/><circle cx="44.0" cy="97.0" r="3.2" fill="#d7875f"/><circle cx="52.0" cy="52.0" r="3.2" fill="#d7875f"/><circle cx="52.0" cy="67.0" r="3.2" fill="#d7875f"/><circle cx="52.0" cy="82.0" r="3.2" fill="#d7875f"/><circle cx="52.0" cy="97.0" r="3.2" fill="#d7875f"/><circle cx="62.0" cy="52.0" r="3.2" fill="#d7875f"/><circle cx="62.0" cy="67.0" r="3.2" fill="#d7875f"/><circle cx="62.0" cy="82.0" r="3.2" fill="#d7875f"/><circle cx="62.0" cy="97.0" r="3.2" fill="#d7875f"/><circle cx="70.0" cy="52.0" r="3.2" fill="#d7875f"/><circle cx="70.0" cy="67.0" r="3.2" fill="#d7875f"/><circle cx="70.0" cy="82.0" r="3.2" fill="#d7875f"/><circle cx="70.0" cy="97.0" r="3.2" fill="#d7875f"/><circle cx="80.0" cy="52.0" r="3.2" fill="#d7875f"/><circle cx="80.0" cy="67.0" r="3.2" fill="#d7875f"/><circle cx="80.0" cy="82.0" r="3.2" fill="#d7875f"/><circle cx="80.0" cy="97.0" r="3.2" fill="#d7875f"/><circle cx="88.0" cy="52.0" r="3.2" fill="#d7875f"/><circle cx="88.0" cy="67.0" r="3.2" fill="#d7875f"/><circle cx="88.0" cy="82.0" r="3.2" fill="#d7875f"/><circle cx="88.0" cy="97.0" r="3.2" fill="#d7875f"/><circle cx="98.0" cy="52.0" r="3.2" fill="#d7875f"/><circle cx="98.0" cy="67.0" r="3.2" fill="#d7875f"/><circle cx="98.0" cy="82.0" r="3.2" fill="#d7875f"/><circle cx="98.0" cy="97.0" r="3.2" fill="#d7875f"/><circle cx="106.0" cy="52.0" r="3.2" fill="#d7875f"/><circle cx="106.0" cy="67.0" r="3.2" fill="#d7875f"/><circle cx="106.0" cy="82.0" r="3.2" fill="#d7875f"/><circle cx="106.0" cy="97.0" r="3.2" fill="#d7875f"/><circle cx="116.0" cy="97.0" r="3.2" fill="#4a4a4a"/><circle cx="124.0" cy="97.0" r="3.2" fill="#4a4a4a"/><circle cx="134.0" cy="97.0" r="3.2" fill="#4a4a4a"/><circle cx="142.0" cy="97.0" r="3.2" fill="#4a4a4a"/></g>
  <text x="184" y="93" font-size="56" font-weight="700" letter-spacing="-1.5"><tspan fill="#d7875f">cc</tspan><tspan fill="#eceae4">status</tspan></text>
</svg>
