<svg xmlns="http://www.w3.org/2000/svg" width="720" height="203" viewBox="0 0 720 203" font-family="ui-monospace,'SF Mono','JetBrains Mono',Menlo,Consolas,monospace">
<rect x="0.5" y="0.5" width="719" height="202" rx="12" fill="#0a0b0e" stroke="#20242c"/>
<line x1="0" y1="34" x2="720" y2="34" stroke="#ffffff" stroke-opacity="0.06"/>
<circle cx="20" cy="17.0" r="5.5" fill="#ec6a5e"/>
<circle cx="40" cy="17.0" r="5.5" fill="#f4bf4f"/>
<circle cx="60" cy="17.0" r="5.5" fill="#61c554"/>
<text x="88" y="21.0" font-size="12" fill="#7c8088">morse — claude</text>
<text x="22" y="54.0" font-size="17" xml:space="preserve"><tspan fill="#6f9f6a">morse</tspan><tspan fill="#565c66"> ~/project $ claude</tspan></text>
<text x="22.0" y="81.0" font-size="17" font-weight="700" fill="#eceae4" xml:space="preserve">Opus 4.8 (1M context)</text>
<text x="252.0" y="81.0" font-size="17" fill="#8a8a8a" xml:space="preserve">Max (20x)</text>
<text x="22.0" y="108.0" font-size="17" font-weight="700" fill="#eceae4" xml:space="preserve">Context </text><circle cx="115.00" cy="106.26" r="1.7" fill="#d7875f"/><circle cx="118.40" cy="106.26" r="1.7" fill="#d7875f"/><circle cx="115.00" cy="91.26" r="1.7" fill="#d7875f"/><circle cx="115.00" cy="96.26" r="1.7" fill="#d7875f"/><circle cx="115.00" cy="101.26" r="1.7" fill="#d7875f"/><circle cx="118.40" cy="91.26" r="1.7" fill="#d7875f"/><circle cx="118.40" cy="96.26" r="1.7" fill="#d7875f"/><circle cx="118.40" cy="101.26" r="1.7" fill="#d7875f"/><circle cx="125.00" cy="106.26" r="1.7" fill="#d7875f"/><circle cx="128.40" cy="106.26" r="1.7" fill="#d7875f"/><circle cx="125.00" cy="91.26" r="1.7" fill="#d7875f"/><circle cx="125.00" cy="96.26" r="1.7" fill="#d7875f"/><circle cx="125.00" cy="101.26" r="1.7" fill="#d7875f"/><circle cx="128.40" cy="91.26" r="1.7" fill="#d7875f"/><circle cx="128.40" cy="96.26" r="1.7" fill="#d7875f"/><circle cx="128.40" cy="101.26" r="1.7" fill="#d7875f"/><circle cx="135.00" cy="106.26" r="1.7" fill="#d7875f"/><circle cx="138.40" cy="106.26" r="1.7" fill="#d7875f"/><circle cx="135.00" cy="91.26" r="1.7" fill="#d7875f"/><circle cx="135.00" cy="96.26" r="1.7" fill="#d7875f"/><circle cx="135.00" cy="101.26" r="1.7" fill="#d7875f"/><circle cx="145.00" cy="106.26" r="1.7" fill="#6b6b6b"/><circle cx="148.40" cy="106.26" r="1.7" fill="#6b6b6b"/><circle cx="155.00" cy="106.26" r="1.7" fill="#6b6b6b"/><circle cx="158.40" cy="106.26" r="1.7" fill="#6b6b6b"/><circle cx="165.00" cy="106.26" r="1.7" fill="#6b6b6b"/><circle cx="168.40" cy="106.26" r="1.7" fill="#6b6b6b"/><circle cx="175.00" cy="106.26" r="1.7" fill="#6b6b6b"/><circle cx="178.40" cy="106.26" r="1.7" fill="#6b6b6b"/><circle cx="185.00" cy="106.26" r="1.7" fill="#6b6b6b"/><circle cx="188.40" cy="106.26" r="1.7" fill="#6b6b6b"/><circle cx="195.00" cy="106.26" r="1.7" fill="#6b6b6b"/><circle cx="198.40" cy="106.26" r="1.7" fill="#6b6b6b"/><circle cx="205.00" cy="106.26" r="1.7" fill="#6b6b6b"/><circle cx="208.40" cy="106.26" r="1.7" fill="#6b6b6b"/><circle cx="215.00" cy="106.26" r="1.7" fill="#6b6b6b"/><circle cx="218.40" cy="106.26" r="1.7" fill="#6b6b6b"/><circle cx="225.00" cy="106.26" r="1.7" fill="#6b6b6b"/><circle cx="228.40" cy="106.26" r="1.7" fill="#6b6b6b"/><text x="252.0" y="108.0" font-size="17" fill="#8a8a8a" xml:space="preserve"> 22%</text><text x="312.0" y="108.0" font-size="17" fill="#8a8a8a" xml:space="preserve">↑180k ↓45k / 1.0m</text>
<text x="22.0" y="135.0" font-size="17" font-weight="700" fill="#eceae4" xml:space="preserve">5h      </text><circle cx="115.00" cy="133.26" r="1.7" fill="#d7875f"/><circle cx="118.40" cy="133.26" r="1.7" fill="#d7875f"/><circle cx="115.00" cy="118.26" r="1.7" fill="#d7875f"/><circle cx="115.00" cy="123.26" r="1.7" fill="#d7875f"/><circle cx="115.00" cy="128.26" r="1.7" fill="#d7875f"/><circle cx="118.40" cy="118.26" r="1.7" fill="#d7875f"/><circle cx="118.40" cy="123.26" r="1.7" fill="#d7875f"/><circle cx="118.40" cy="128.26" r="1.7" fill="#d7875f"/><circle cx="125.00" cy="133.26" r="1.7" fill="#d7875f"/><circle cx="128.40" cy="133.26" r="1.7" fill="#d7875f"/><circle cx="125.00" cy="118.26" r="1.7" fill="#d7875f"/><circle cx="125.00" cy="123.26" r="1.7" fill="#d7875f"/><circle cx="125.00" cy="128.26" r="1.7" fill="#d7875f"/><circle cx="128.40" cy="118.26" r="1.7" fill="#d7875f"/><circle cx="128.40" cy="123.26" r="1.7" fill="#d7875f"/><circle cx="128.40" cy="128.26" r="1.7" fill="#d7875f"/><circle cx="135.00" cy="133.26" r="1.7" fill="#d7875f"/><circle cx="138.40" cy="133.26" r="1.7" fill="#d7875f"/><circle cx="135.00" cy="118.26" r="1.7" fill="#d7875f"/><circle cx="135.00" cy="123.26" r="1.7" fill="#d7875f"/><circle cx="135.00" cy="128.26" r="1.7" fill="#d7875f"/><circle cx="138.40" cy="118.26" r="1.7" fill="#d7875f"/><circle cx="138.40" cy="123.26" r="1.7" fill="#d7875f"/><circle cx="138.40" cy="128.26" r="1.7" fill="#d7875f"/><circle cx="145.00" cy="133.26" r="1.7" fill="#d7875f"/><circle cx="148.40" cy="133.26" r="1.7" fill="#d7875f"/><circle cx="145.00" cy="118.26" r="1.7" fill="#d7875f"/><circle cx="145.00" cy="123.26" r="1.7" fill="#d7875f"/><circle cx="145.00" cy="128.26" r="1.7" fill="#d7875f"/><circle cx="148.40" cy="118.26" r="1.7" fill="#d7875f"/><circle cx="148.40" cy="123.26" r="1.7" fill="#d7875f"/><circle cx="148.40" cy="128.26" r="1.7" fill="#d7875f"/><circle cx="155.00" cy="133.26" r="1.7" fill="#6b6b6b"/><circle cx="158.40" cy="133.26" r="1.7" fill="#6b6b6b"/><circle cx="165.00" cy="133.26" r="1.7" fill="#6b6b6b"/><circle cx="168.40" cy="133.26" r="1.7" fill="#6b6b6b"/><circle cx="175.00" cy="133.26" r="1.7" fill="#6b6b6b"/><circle cx="178.40" cy="133.26" r="1.7" fill="#6b6b6b"/><circle cx="185.00" cy="133.26" r="1.7" fill="#6b6b6b"/><circle cx="188.40" cy="133.26" r="1.7" fill="#6b6b6b"/><circle cx="195.00" cy="133.26" r="1.7" fill="#6b6b6b"/><circle cx="198.40" cy="133.26" r="1.7" fill="#6b6b6b"/><circle cx="205.00" cy="133.26" r="1.7" fill="#6b6b6b"/><circle cx="208.40" cy="133.26" r="1.7" fill="#6b6b6b"/><circle cx="215.00" cy="133.26" r="1.7" fill="#6b6b6b"/><circle cx="218.40" cy="133.26" r="1.7" fill="#6b6b6b"/><circle cx="225.00" cy="133.26" r="1.7" fill="#6b6b6b"/><circle cx="228.40" cy="133.26" r="1.7" fill="#6b6b6b"/><text x="252.0" y="135.0" font-size="17" fill="#8a8a8a" xml:space="preserve"> 32%</text><text x="312.0" y="135.0" font-size="17" fill="#8a8a8a" xml:space="preserve">resets in 2h 3m</text>
<text x="22.0" y="162.0" font-size="17" font-weight="700" fill="#eceae4" xml:space="preserve">7d      </text><circle cx="115.00" cy="160.26" r="1.7" fill="#d7875f"/><circle cx="118.40" cy="160.26" r="1.7" fill="#d7875f"/><circle cx="115.00" cy="145.26" r="1.7" fill="#d7875f"/><circle cx="115.00" cy="150.26" r="1.7" fill="#d7875f"/><circle cx="115.00" cy="155.26" r="1.7" fill="#d7875f"/><circle cx="118.40" cy="145.26" r="1.7" fill="#d7875f"/><circle cx="118.40" cy="150.26" r="1.7" fill="#d7875f"/><circle cx="118.40" cy="155.26" r="1.7" fill="#d7875f"/><circle cx="125.00" cy="160.26" r="1.7" fill="#d7875f"/><circle cx="128.40" cy="160.26" r="1.7" fill="#d7875f"/><circle cx="125.00" cy="145.26" r="1.7" fill="#d7875f"/><circle cx="125.00" cy="150.26" r="1.7" fill="#d7875f"/><circle cx="125.00" cy="155.26" r="1.7" fill="#d7875f"/><circle cx="128.40" cy="145.26" r="1.7" fill="#d7875f"/><circle cx="128.40" cy="150.26" r="1.7" fill="#d7875f"/><circle cx="128.40" cy="155.26" r="1.7" fill="#d7875f"/><circle cx="135.00" cy="160.26" r="1.7" fill="#d7875f"/><circle cx="138.40" cy="160.26" r="1.7" fill="#d7875f"/><circle cx="135.00" cy="145.26" r="1.7" fill="#d7875f"/><circle cx="135.00" cy="150.26" r="1.7" fill="#d7875f"/><circle cx="135.00" cy="155.26" r="1.7" fill="#d7875f"/><circle cx="138.40" cy="145.26" r="1.7" fill="#d7875f"/><circle cx="138.40" cy="150.26" r="1.7" fill="#d7875f"/><circle cx="138.40" cy="155.26" r="1.7" fill="#d7875f"/><circle cx="145.00" cy="160.26" r="1.7" fill="#d7875f"/><circle cx="148.40" cy="160.26" r="1.7" fill="#d7875f"/><circle cx="145.00" cy="145.26" r="1.7" fill="#d7875f"/><circle cx="145.00" cy="150.26" r="1.7" fill="#d7875f"/><circle cx="145.00" cy="155.26" r="1.7" fill="#d7875f"/><circle cx="148.40" cy="145.26" r="1.7" fill="#d7875f"/><circle cx="148.40" cy="150.26" r="1.7" fill="#d7875f"/><circle cx="148.40" cy="155.26" r="1.7" fill="#d7875f"/><circle cx="155.00" cy="160.26" r="1.7" fill="#6b6b6b"/><circle cx="158.40" cy="160.26" r="1.7" fill="#6b6b6b"/><circle cx="165.00" cy="160.26" r="1.7" fill="#6b6b6b"/><circle cx="168.40" cy="160.26" r="1.7" fill="#6b6b6b"/><circle cx="175.00" cy="160.26" r="1.7" fill="#6b6b6b"/><circle cx="178.40" cy="160.26" r="1.7" fill="#6b6b6b"/><circle cx="185.00" cy="160.26" r="1.7" fill="#6b6b6b"/><circle cx="188.40" cy="160.26" r="1.7" fill="#6b6b6b"/><circle cx="195.00" cy="160.26" r="1.7" fill="#6b6b6b"/><circle cx="198.40" cy="160.26" r="1.7" fill="#6b6b6b"/><circle cx="205.00" cy="160.26" r="1.7" fill="#6b6b6b"/><circle cx="208.40" cy="160.26" r="1.7" fill="#6b6b6b"/><circle cx="215.00" cy="160.26" r="1.7" fill="#6b6b6b"/><circle cx="218.40" cy="160.26" r="1.7" fill="#6b6b6b"/><circle cx="225.00" cy="160.26" r="1.7" fill="#6b6b6b"/><circle cx="228.40" cy="160.26" r="1.7" fill="#6b6b6b"/><text x="252.0" y="162.0" font-size="17" fill="#8a8a8a" xml:space="preserve"> 33%</text><text x="312.0" y="162.0" font-size="17" fill="#8a8a8a" xml:space="preserve">resets in 2d 7h</text>
</svg>